<?xml version="1.0" encoding="UTF-8" standalone="no" ?>
<!DOCTYPE svg PUBLIC "-//W3C//DTD SVG 1.1//EN" "http://www.w3.org/Graphics/SVG/1.1/DTD/svg11.dtd">
<svg xmlns="http://www.w3.org/2000/svg" xmlns:xlink="http://www.w3.org/1999/xlink" version="1.1" width="1080" height="1080" viewBox="0 0 1080 1080" xml:space="preserve">
<desc>Created with Fabric.js 5.2.4</desc>
<defs>
</defs>
<g transform="matrix(1 0 0 1 540 540)" id="0160c208-c034-431a-8e05-c381da0da8c8"  >
<rect style="stroke: none; stroke-width: 1; stroke-dasharray: none; stroke-linecap: butt; stroke-dashoffset: 0; stroke-linejoin: miter; stroke-miterlimit: 4; fill: rgb(255,255,255); fill-rule: nonzero; opacity: 1; visibility: hidden;" vector-effect="non-scaling-stroke"  x="-540" y="-540" rx="0" ry="0" width="1080" height="1080" />
</g>
<g transform="matrix(1 0 0 1 540 540)" id="5e78e311-1417-48d7-bcec-0686762daad1"  >
</g>
<g transform="matrix(1 0 0 1 540 540)"  >
<g style="" vector-effect="non-scaling-stroke"   >
		<g transform="matrix(0.09 0 0 -0.09 -42.23 0)"  >
<path style="stroke: none; stroke-width: 1; stroke-dasharray: none; stroke-linecap: butt; stroke-dashoffset: 0; stroke-linejoin: miter; stroke-miterlimit: 4; fill: rgb(0,86,120); fill-rule: nonzero; opacity: 1;" vector-effect="non-scaling-stroke"  transform=" translate(-2560, -2560)" d="M 330 4955 L 330 4790 L 165 4790 L 0 4790 L 0 3230 L 0 1670 L 165 1670 L 330 1670 L 330 1505 L 330 1340 L 610 1340 L 890 1340 L 890 670 L 890 0 L 1225 0 L 1560 0 L 1560 165 L 1560 330 L 1725 330 L 1890 330 L 1890 500 L 1890 670 L 2060 670 L 2230 670 L 2230 835 L 2230 1000 L 2395 1000 L 2560 1000 L 2560 1170 L 2560 1340 L 3675 1340 L 4790 1340 L 4790 1505 L 4790 1670 L 4955 1670 L 5120 1670 L 5120 3230 L 5120 4790 L 4955 4790 L 4790 4790 L 4790 4955 L 4790 5120 L 2560 5120 L 330 5120 L 330 4955 z M 1670 3225 L 1670 2890 L 1338 2892 L 1005 2895 L 1002 3228 L 1000 3560 L 1335 3560 L 1670 3560 L 1670 3225 z M 2890 3225 L 2890 2890 L 2560 2890 L 2230 2890 L 2230 3225 L 2230 3560 L 2560 3560 L 2890 3560 L 2890 3225 z M 4118 3228 L 4115 2895 L 3783 2892 L 3450 2890 L 3450 3225 L 3450 3560 L 3785 3560 L 4120 3560 L 4118 3228 z" stroke-linecap="round" />
</g>
		<g transform="matrix(1 0 0 1 272.13 25.56)"  >
<line style="stroke: rgb(0,0,0); stroke-width: 2; stroke-dasharray: none; stroke-linecap: butt; stroke-dashoffset: 0; stroke-linejoin: miter; stroke-miterlimit: 4; fill: rgb(0,0,0); fill-rule: nonzero; opacity: 1;" vector-effect="non-scaling-stroke"  x1="0" y1="0" x2="0" y2="0" />
</g>
</g>
</g>
</svg>