<?xml version="1.0" standalone="no"?>
<!DOCTYPE svg PUBLIC "-//W3C//DTD SVG 20010904//EN"
 "http://www.w3.org/TR/2001/REC-SVG-20010904/DTD/svg10.dtd">
<svg version="1.0" xmlns="http://www.w3.org/2000/svg"
 width="512.000000pt" height="512.000000pt" viewBox="0 0 512.000000 512.000000"
 preserveAspectRatio="xMidYMid meet">

<g transform="translate(0.000000,512.000000) scale(0.100000,-0.100000)"
fill="#000000" stroke="none">
<path d="M330 4955 l0 -165 -165 0 -165 0 0 -1560 0 -1560 165 0 165 0 0 -165
0 -165 280 0 280 0 0 -670 0 -670 335 0 335 0 0 165 0 165 165 0 165 0 0 170
0 170 170 0 170 0 0 165 0 165 165 0 165 0 0 170 0 170 1115 0 1115 0 0 165 0
165 165 0 165 0 0 1560 0 1560 -165 0 -165 0 0 165 0 165 -2230 0 -2230 0 0
-165z m1340 -1730 l0 -335 -332 2 -333 3 -3 333 -2 332 335 0 335 0 0 -335z
m1220 0 l0 -335 -330 0 -330 0 0 335 0 335 330 0 330 0 0 -335z m1228 3 l-3
-333 -332 -3 -333 -2 0 335 0 335 335 0 335 0 -2 -332z"/>
</g>
</svg>
