<?xml version="1.0" encoding="UTF-8" standalone="no" ?>
<!DOCTYPE svg PUBLIC "-//W3C//DTD SVG 1.1//EN" "http://www.w3.org/Graphics/SVG/1.1/DTD/svg11.dtd">
<svg xmlns="http://www.w3.org/2000/svg" xmlns:xlink="http://www.w3.org/1999/xlink" version="1.1" width="1080" height="1080" viewBox="0 0 1080 1080" xml:space="preserve">
<desc>Created with Fabric.js 5.2.4</desc>
<defs>
</defs>
<g transform="matrix(1 0 0 1 540 540)" id="9b7a5edc-b336-4e62-9a66-c55f97a2a833"  >
<rect style="stroke: none; stroke-width: 1; stroke-dasharray: none; stroke-linecap: butt; stroke-dashoffset: 0; stroke-linejoin: miter; stroke-miterlimit: 4; fill: rgb(255,255,255); fill-rule: nonzero; opacity: 1; visibility: hidden;" vector-effect="non-scaling-stroke"  x="-540" y="-540" rx="0" ry="0" width="1080" height="1080" />
</g>
<g transform="matrix(1 0 0 1 540 540)" id="b91096c7-768e-4310-a1fc-50a07dae288f"  >
</g>
<g transform="matrix(1 0 0 1 540 540)"  >
<path style="stroke: rgb(0,0,0); stroke-width: 0; stroke-dasharray: none; stroke-linecap: butt; stroke-dashoffset: 0; stroke-linejoin: miter; stroke-miterlimit: 4; fill: rgb(255,42,109); fill-rule: nonzero; opacity: 1;" vector-effect="non-scaling-stroke"  transform=" translate(-600, -630.42)" d="M 919.75 426.97 L 919.75 659.45 L 861.57 659.45 L 861.57 717.63 L 803.5110000000001 717.63 L 803.5110000000001 775.689 L 745.3310000000001 775.689 L 745.3310000000001 833.8689999999999 L 687.1510000000002 833.8689999999999 L 687.1510000000002 891.9279999999999 L 629.0920000000002 891.9279999999999 L 629.0920000000002 950.1079999999998 L 570.9120000000003 950.1079999999998 L 570.9120000000003 891.9279999999999 L 512.8530000000003 891.9279999999999 L 512.8530000000003 833.8689999999999 L 454.6730000000003 833.8689999999999 L 454.6730000000003 775.689 L 396.61400000000026 775.689 L 396.61400000000026 717.63 L 338.43400000000025 717.63 L 338.43400000000025 659.45 L 280.25400000000025 659.45 L 280.25400000000025 426.97 L 338.43400000000025 426.97 L 338.43400000000025 368.79 L 396.61400000000026 368.79 L 396.61400000000026 310.731 L 512.8540000000003 310.731 L 512.8540000000003 368.78999999999996 L 570.9130000000002 368.78999999999996 L 570.9130000000002 426.96999999999997 L 629.0930000000002 426.96999999999997 L 629.0930000000002 368.78999999999996 L 687.1520000000002 368.78999999999996 L 687.1520000000002 310.731 L 803.5120000000002 310.731 L 803.5120000000002 368.78999999999996 L 861.5710000000001 368.78999999999996 L 861.5710000000001 426.96999999999997 z" stroke-linecap="round" />
</g>
<g transform="matrix(NaN NaN NaN NaN 0 0)"  >
<g style=""   >
</g>
</g>
<g transform="matrix(NaN NaN NaN NaN 0 0)"  >
<g style=""   >
</g>
</g>
</svg>